# xmcd
#
# Track frame offsets:
#	150
#	24153
#	43287
#	60340
#	86323
#	102977
#	123383
#	144241
#	165115
#
# Disc length: 2536 seconds
#
# Revision: 0
# Processed by: cddbd v1.5.1PL0 Copyright (c) Steve Scherf et al.
# Submitted via: EasyCDDAExtractor 7.5.2.1
#
DISCID=6109e609
DTITLE=Dire Straits - Communique
DYEAR=1900
DGENRE=
TTITLE0=Once upon a time in the west
TTITLE1=News
TTITLE2=Where do you think you're going
TTITLE3=Communique
TTITLE4=Lady writer
TTITLE5=Angel of mercy
TTITLE6=Portebello Belle
TTITLE7=Single-handed sailor
TTITLE8=Follow me home
EXTD=
EXTT0=
EXTT1=
EXTT2=
EXTT3=
EXTT4=
EXTT5=
EXTT6=
EXTT7=
EXTT8=
PLAYORDER=
